<svg width="59" height="81" viewBox="0 0 59 81" fill="none" xmlns="http://www.w3.org/2000/svg">
<path d="M46.7182 67.5219C51.2739 75.3316 36.6849 78.9111 28.8209 79.7246C23.9406 80.2296 1.16093 75.657 7.66871 67.5219C13.4935 60.2405 25.3962 72.4158 28.3687 78.6265C28.5562 79.0184 28.7083 79.3866 28.8209 79.7246C32.8885 72.403 42.1625 59.7121 46.7182 67.5219Z" fill="#D7D7D7"/>
<path d="M27.1939 45.5569C25.2957 51.2515 22.9636 66.0575 28.8209 79.7246M28.8209 79.7246C36.6849 78.9111 51.2739 75.3316 46.7182 67.5219C42.1625 59.7121 32.8885 72.403 28.8209 79.7246ZM28.8209 79.7246C26.9227 74.03 13.861 59.781 7.66871 67.5219C1.16093 75.657 23.9406 80.2296 28.8209 79.7246Z" stroke="#D7D7D7"/>
<path d="M16.8702 25.6925C13.9174 24.5903 9.05744 21.0269 13.2397 15.5905C17.9064 9.52438 23.8226 13.039 24.9381 16.6974C24.8459 13.1671 27.24 7.11203 32.4828 7.29819C38.4591 7.5104 42.2314 13.6279 38.035 19.4627C40.4181 17.8851 45.7462 15.7476 47.9952 19.8167C50.8065 24.903 47.5711 31.769 39.6735 29.4939C44.5948 31.3308 52.5808 36.7339 45.1546 43.6508C37.7284 50.5677 33.1781 43.8907 32.3117 40.2032C31.186 43.82 31.9581 50.1637 23.99 49.8804C17.6904 49.6565 16.2338 43.6212 19.3988 38.7471C16.0315 39.9572 8.95498 40.7697 7.58767 34.3384C5.87852 26.2993 13.9172 24.5905 16.8702 25.6925Z" fill="#D7D7D7"/>
</svg>
