<svg width="50" height="47" viewBox="0 0 50 47" fill="none" xmlns="http://www.w3.org/2000/svg">
<path fill-rule="evenodd" clip-rule="evenodd" d="M0 41.0983L15.168 46.2137L19.5499 22.342L10.7861 19.6138L0 41.0983ZM29.6619 19.6138L32.0213 41.0983L49.5488 46.2137L40.785 22.342L29.6619 19.6138Z" fill="white"/>
<path d="M15.168 46.2137L32.0213 41.0983L29.6619 19.6138L19.5499 22.342L15.168 46.2137Z" fill="#FFF6F2"/>
<path d="M31.9432 28.2372C33.8483 31.5032 27.7474 33.0001 24.4587 33.3403C22.4178 33.5515 12.8915 31.6392 15.613 28.2372C18.0489 25.1922 23.0265 30.2838 24.2696 32.881C24.348 33.0449 24.4116 33.1989 24.4587 33.3403C26.1597 30.2784 30.038 24.9712 31.9432 28.2372Z" fill="#C7C151"/>
<path d="M23.7783 19.0516C22.9845 21.433 22.0092 27.6248 24.4587 33.3403M24.4587 33.3403C27.7474 33.0001 33.8483 31.5032 31.9432 28.2372C30.038 24.9712 26.1597 30.2784 24.4587 33.3403ZM24.4587 33.3403C23.6649 30.9588 18.2026 25 15.613 28.2372C12.8915 31.6392 22.4178 33.5515 24.4587 33.3403Z" stroke="#C7C151"/>
<path d="M19.4612 10.7444C18.2264 10.2835 16.194 8.7933 17.943 6.51984C19.8946 3.98301 22.3687 5.45282 22.8352 6.98274C22.7966 5.50637 23.7978 2.97419 25.9903 3.05204C28.4896 3.14079 30.0671 5.69907 28.3122 8.13915C29.3088 7.47942 31.537 6.58552 32.4775 8.28718C33.6532 10.4143 32.3001 13.2855 28.9974 12.3341C31.0554 13.1023 34.3952 15.3618 31.2896 18.2544C28.184 21.147 26.2811 18.3548 25.9188 16.8127C25.448 18.3252 25.7709 20.9781 22.4387 20.8596C19.8043 20.766 19.1951 18.2421 20.5187 16.2037C19.1105 16.7098 16.1512 17.0496 15.5794 14.3601C14.8646 10.9982 18.2263 10.2836 19.4612 10.7444Z" fill="#FBBB95"/>
<ellipse cx="24.0859" cy="12.1536" rx="2.52455" ry="2.15562" transform="rotate(-9.10683 24.0859 12.1536)" fill="white"/>
</svg>
