<svg width="271" height="271" viewBox="0 0 271 271" fill="none" xmlns="http://www.w3.org/2000/svg">
<path fill-rule="evenodd" clip-rule="evenodd" d="M186.66 71.2391C186.896 67.955 186.836 64.6028 186.457 61.2127C183.111 31.3306 156.174 9.81868 126.292 13.1645C96.4101 16.5103 74.8982 43.4469 78.244 73.329C78.361 74.3738 78.5068 75.4083 78.6806 76.4318C72.7876 75.0515 66.5623 74.6379 60.2037 75.3499C30.3216 78.6957 8.80966 105.632 12.1555 135.514C14.3006 154.673 26.1429 170.391 42.2415 178.323C38.6986 186.658 37.1901 195.994 38.2697 205.636C41.6155 235.518 68.5521 257.03 98.4342 253.684C112.576 252.101 124.843 245.234 133.488 235.272C144.833 248.273 162.157 255.681 180.603 253.615C210.486 250.269 231.997 223.333 228.652 193.451C227.863 186.412 225.766 179.838 222.63 173.943C244.902 165.119 259.441 142.22 256.647 117.268C253.301 87.3857 226.365 65.8738 196.483 69.2196C193.093 69.5992 189.81 70.2824 186.66 71.2391Z" fill="url(#paint0_radial_499_311)"/>
<path fill-rule="evenodd" clip-rule="evenodd" d="M141.52 85.8513C141.49 85.5937 141.436 85.3353 141.357 85.0785C140.661 82.8182 138.264 81.5505 136.003 82.247C133.743 82.9435 132.475 85.3405 133.172 87.6009C133.196 87.6797 133.223 87.7574 133.251 87.8338C132.776 87.8137 132.289 87.8731 131.809 88.0211C129.549 88.7176 128.281 91.1146 128.977 93.375C129.424 94.8243 130.57 95.8655 131.93 96.2425C131.779 96.9386 131.799 97.6823 132.024 98.4117C132.72 100.672 135.117 101.94 137.378 101.243C138.447 100.914 139.294 100.203 139.816 99.3072C140.884 100.145 142.33 100.463 143.725 100.033C145.986 99.3369 147.253 96.9399 146.557 94.6795C146.393 94.1474 146.135 93.6703 145.806 93.2609C147.398 92.2526 148.186 90.2697 147.605 88.3822C146.908 86.1218 144.511 84.8541 142.251 85.5506C141.994 85.6298 141.75 85.7309 141.52 85.8513Z" fill="#D2ECFF"/>
<circle cx="138.264" cy="92.0067" r="3.56886" transform="rotate(-17.1266 138.264 92.0067)" fill="url(#paint1_radial_499_311)"/>
<path fill-rule="evenodd" clip-rule="evenodd" d="M162.61 114.902C162.789 114.697 162.952 114.474 163.097 114.231C164.367 112.097 163.666 109.338 161.532 108.067C159.398 106.797 156.639 107.498 155.368 109.632C155.324 109.706 155.282 109.781 155.243 109.857C154.924 109.472 154.535 109.135 154.081 108.865C151.947 107.595 149.187 108.295 147.917 110.429C147.103 111.798 147.098 113.423 147.763 114.748C147.114 115.12 146.549 115.66 146.139 116.348C144.868 118.482 145.569 121.242 147.703 122.512C148.713 123.113 149.862 123.273 150.928 123.049C151.026 124.47 151.798 125.822 153.115 126.606C155.249 127.876 158.009 127.176 159.279 125.042C159.578 124.539 159.768 124.002 159.855 123.457C161.762 123.987 163.861 123.205 164.922 121.423C166.192 119.289 165.491 116.529 163.357 115.259C163.115 115.115 162.865 114.996 162.61 114.902Z" fill="#D2ECFF"/>
<circle cx="155.521" cy="116.7" r="3.7473" transform="rotate(30.7604 155.521 116.7)" fill="url(#paint2_radial_499_311)"/>
<path fill-rule="evenodd" clip-rule="evenodd" d="M175.982 87.9172C176.045 87.6524 176.083 87.3782 176.097 87.0968C176.214 84.6161 174.298 82.5098 171.818 82.3923C169.337 82.2749 167.231 84.1907 167.113 86.6714C167.109 86.758 167.108 86.8443 167.108 86.93C166.646 86.7405 166.144 86.6255 165.616 86.6005C163.135 86.483 161.029 88.3988 160.912 90.8795C160.836 92.4701 161.597 93.9067 162.806 94.7638C162.408 95.3974 162.163 96.139 162.125 96.9395C162.008 99.4202 163.924 101.526 166.404 101.644C167.578 101.7 168.668 101.3 169.503 100.6C170.259 101.809 171.575 102.639 173.106 102.711C175.587 102.829 177.693 100.913 177.811 98.4325C177.838 97.8482 177.753 97.2847 177.574 96.763C179.506 96.3345 180.991 94.6568 181.089 92.5852C181.207 90.1045 179.291 87.9982 176.81 87.8807C176.529 87.8674 176.252 87.8803 175.982 87.9172Z" fill="#D2ECFF"/>
<circle cx="170.574" cy="92.8377" r="3.7473" transform="rotate(2.7112 170.574 92.8377)" fill="url(#paint3_radial_499_311)"/>
<path fill-rule="evenodd" clip-rule="evenodd" d="M133.471 118.622C133.605 118.415 133.722 118.194 133.819 117.958C134.679 115.882 133.692 113.503 131.616 112.643C129.54 111.784 127.16 112.771 126.301 114.847C126.271 114.92 126.243 114.993 126.217 115.066C125.882 114.763 125.489 114.511 125.047 114.328C122.971 113.469 120.592 114.456 119.732 116.532C119.181 117.863 119.389 119.32 120.157 120.42C119.625 120.837 119.19 121.393 118.912 122.063C118.053 124.139 119.04 126.519 121.116 127.378C122.098 127.785 123.148 127.778 124.073 127.438C124.347 128.698 125.213 129.808 126.494 130.338C128.571 131.197 130.95 130.21 131.809 128.134C132.012 127.645 132.112 127.139 132.119 126.641C133.895 126.867 135.673 125.893 136.391 124.159C137.25 122.083 136.263 119.703 134.187 118.844C133.951 118.747 133.712 118.673 133.471 118.622Z" fill="#D2ECFF"/>
<circle cx="127.359" cy="121.156" r="3.39041" transform="rotate(22.4807 127.359 121.156)" fill="url(#paint4_radial_499_311)"/>
<path fill-rule="evenodd" clip-rule="evenodd" d="M115.497 97.7265C115.678 97.5994 115.849 97.4541 116.008 97.2906C117.412 95.8516 117.384 93.5468 115.945 92.1428C114.506 90.7387 112.201 90.767 110.797 92.206C110.748 92.2562 110.701 92.3073 110.656 92.3595C110.477 91.9965 110.235 91.6572 109.929 91.3587C108.49 89.9546 106.185 89.9829 104.781 91.4219C103.881 92.3445 103.57 93.6229 103.841 94.7917C103.26 94.9615 102.713 95.279 102.259 95.7436C100.855 97.1826 100.884 99.4874 102.323 100.891C103.004 101.556 103.879 101.9 104.761 101.925C104.569 103.062 104.92 104.272 105.808 105.139C107.247 106.543 109.552 106.514 110.956 105.075C111.286 104.737 111.537 104.35 111.709 103.938C113.109 104.716 114.909 104.497 116.08 103.296C117.484 101.857 117.456 99.5523 116.017 98.1483C115.854 97.9893 115.68 97.8488 115.497 97.7265Z" fill="#D2ECFF"/>
<ellipse cx="109.578" cy="97.7987" rx="3.03369" ry="3.03352" transform="rotate(44.2942 109.578 97.7987)" fill="url(#paint5_radial_499_311)"/>
<path fill-rule="evenodd" clip-rule="evenodd" d="M68.5573 136.479C67.6275 135.743 65.4113 135.275 64.249 135.792C61.1042 137.192 60.4124 137.899 59.2769 138.933C58.1414 139.968 57.9559 140.001 57.7985 139.827C57.641 139.653 58.2272 138.261 58.864 137.467C59.6655 136.468 60.7987 134.681 63.7367 133.374C65.9022 132.411 68.8231 132.644 70.8382 134.238C71.88 135.062 72.6653 136.243 72.9504 137.753C73.2324 139.245 73.0072 140.955 72.2276 142.845C70.6348 146.706 67.5605 151.384 64.0093 155.075C62.7771 156.355 59.6752 159.544 59.2821 159.192C58.8889 158.84 60.521 156.839 60.8626 156.373C64.8052 150.991 67.2245 147.393 69.5552 141.743C70.1796 140.229 70.0625 139.28 69.9099 138.472C69.7142 137.436 69.0815 136.894 68.5573 136.479Z" fill="#594D32"/>
<path fill-rule="evenodd" clip-rule="evenodd" d="M85.5337 136.441C84.6633 135.752 82.5857 135.376 81.4976 135.86C78.5537 137.17 78.0841 137.563 77.0211 138.531C75.9581 139.5 75.7845 139.531 75.6371 139.368C75.4897 139.205 76.0384 137.902 76.6346 137.158C77.3848 136.223 78.4457 134.551 81.196 133.327C83.2232 132.425 85.9576 132.644 87.8439 134.136C88.8191 134.908 89.5543 136.013 89.8212 137.426C90.0851 138.823 89.8743 140.424 89.1445 142.193C87.6535 145.808 84.7755 150.187 81.4512 153.641C80.2977 154.84 77.394 157.825 77.0259 157.496C76.6578 157.166 78.1857 155.293 78.5055 154.857C82.1962 149.819 84.286 146.658 86.4679 141.369C87.0524 139.952 86.9427 139.063 86.7999 138.307C86.6167 137.337 86.0244 136.829 85.5337 136.441Z" fill="#594D32"/>
<path fill-rule="evenodd" clip-rule="evenodd" d="M71.7119 153.444C72.4271 153.799 72.7195 154.666 72.3649 155.381C71.7594 156.603 70.7013 158.341 69.8483 160.174C68.9762 162.049 68.4701 162.758 68.245 163.475C68.0058 164.236 67.6953 164.896 67.2141 164.873C66.7329 164.85 66.1715 164.632 66.4107 163.87C66.7048 162.934 67.3964 161.023 67.9688 159.12C68.5412 157.218 69.1615 155.335 69.7749 154.097C70.1295 153.382 70.9967 153.09 71.7119 153.444Z" fill="#594D32"/>
<path fill-rule="evenodd" clip-rule="evenodd" d="M86.6457 161.934C86.623 162.416 85.1616 162.718 84.1939 162.783C71.6128 163.634 59.7729 167.399 56.0377 168.855C55.294 169.145 54.456 168.777 54.166 168.033C53.876 167.29 54.2439 166.452 54.9876 166.162C58.9745 164.607 68.1565 161.943 84.7435 161.362C85.5413 161.334 86.677 161.275 86.6457 161.934Z" fill="#594D32"/>
<path fill-rule="evenodd" clip-rule="evenodd" d="M77.6416 168.743C77.6723 169.227 76.1567 169.543 75.5119 169.607C68.8878 170.258 64.9918 172.263 64.0407 172.618C63.293 172.898 62.4603 172.518 62.1809 171.77C61.9015 171.022 62.2812 170.19 63.029 169.91C64.3694 169.41 68.5575 168.608 75.5803 168.163C76.377 168.113 77.6109 168.259 77.6416 168.743Z" fill="#594D32"/>
<path fill-rule="evenodd" clip-rule="evenodd" d="M69.473 177.323C68.3956 177.644 67.3182 178.137 66.4426 178.698C65.7705 179.129 64.8765 178.933 64.4457 178.261C64.0149 177.589 64.2104 176.695 64.8824 176.264C65.9965 175.55 67.3224 174.948 68.6454 174.553C69.9525 174.162 71.3617 173.942 72.6169 174.09C73.8751 174.239 75.2379 174.807 75.8921 176.231C76.5056 177.567 76.5896 179.22 75.5821 181.669C74.5746 184.117 70.9773 187.239 67.5174 189.004C65.5981 189.983 63.8538 190.76 62.0868 191.641C60.2292 192.567 58.6269 193.406 58.168 192.902C57.8188 192.519 58.4266 191.849 59.2089 191.505C60.1939 191.069 63.7054 189.005 66.6557 187.034C69.3518 185.232 71.3187 182.961 72.3111 180.549C72.7004 179.603 73.107 178.714 72.8541 178.163C72.6276 177.67 72.1792 177.218 71.4559 177.132C70.7326 177.047 70.5663 176.996 69.473 177.323Z" fill="#594D32"/>
<path fill-rule="evenodd" clip-rule="evenodd" d="M71.598 184.374C71.8038 184.173 73.4731 184.911 73.9571 185.45C76.1442 187.333 79.0929 189.07 82.8746 190.696C83.5329 190.973 84.848 191.86 84.5733 192.547C84.2986 193.235 82.9377 193.357 82.2794 193.079C78.9543 191.957 74.1398 187.687 73.4071 186.871C72.9232 186.332 71.074 184.883 71.598 184.374Z" fill="#594D32"/>
<path fill-rule="evenodd" clip-rule="evenodd" d="M108.389 147.495C109.119 147.172 109.972 147.502 110.295 148.232C110.613 148.952 110.824 150.136 110.994 151.569C111.171 153.069 111.432 157.803 111.366 159.246C111.168 163.578 111.19 163.097 111.07 165.503C111.034 166.226 110.929 168.486 110.888 169.353C110.85 170.15 111.024 172.253 110.277 172.218C109.529 172.182 109.367 171.045 109.405 170.247C109.447 169.371 109.449 167.596 109.413 166.871C109.243 163.487 109.119 162.034 108.967 159.133C108.841 156.729 108.29 153.319 108.123 151.909C107.948 150.431 107.769 149.667 107.651 149.402C107.329 148.671 107.659 147.818 108.389 147.495Z" fill="#594D32"/>
<path fill-rule="evenodd" clip-rule="evenodd" d="M123.329 146.292C122.192 146.356 121.025 146.553 119.922 146.744C118.259 147.032 116.898 147.523 115.752 148.005C115.359 148.17 115.01 148.326 114.671 148.478C114.5 148.555 114.331 148.63 114.161 148.705C113.684 148.915 113.185 149.124 112.711 149.257C111.943 149.474 111.145 149.026 110.928 148.258C110.712 147.489 111.159 146.691 111.928 146.475C112.187 146.402 112.523 146.267 112.998 146.059C113.136 145.998 113.288 145.93 113.45 145.857C113.806 145.698 114.21 145.518 114.631 145.341C115.893 144.809 117.475 144.234 119.429 143.896C120.514 143.708 121.839 143.481 123.165 143.406C124.482 143.331 125.927 143.396 127.232 143.875C128.589 144.374 129.773 145.316 130.461 146.883C131.124 148.392 131.262 150.336 130.891 152.755C130.365 156.189 129.614 161.075 126.957 166.255C126.466 167.214 125.467 168.735 124.918 168.57C124.612 168.478 124.724 167.938 124.954 167.174C125.506 165.339 127.157 161.923 128.034 152.317C128.144 149.988 128.172 148.86 127.814 148.045C127.482 147.288 126.952 146.852 126.235 146.589C125.466 146.307 124.476 146.227 123.329 146.292Z" fill="#594D32"/>
<path fill-rule="evenodd" clip-rule="evenodd" d="M113.662 172.009C111.572 172.413 111.848 172.29 110.045 172.584C109.257 172.712 108.497 172.546 108.368 171.758C108.24 170.97 108.774 170.228 109.562 170.099C110.466 169.952 112.322 169.747 114.263 169.513C116.203 169.278 118.546 168.99 119.57 168.799C121.03 168.527 122.009 168.485 123.253 168.309C124.225 168.172 124.91 168.087 125.872 168.133C126.611 168.168 127.348 168.203 127.325 168.684C127.302 169.165 125.516 169.352 124.873 169.533C124.384 169.67 123.76 169.719 122.925 169.923C122.091 170.127 119.511 170.726 118.044 171.139C116.741 171.506 114.695 171.809 113.662 172.009Z" fill="#594D32"/>
<path fill-rule="evenodd" clip-rule="evenodd" d="M179.802 160.558C177.097 161.331 175.115 162.132 172.202 162.408C171.407 162.484 170.702 161.901 170.627 161.106C170.551 160.311 171.135 159.606 171.929 159.53C174.552 159.282 177.026 158.576 179.717 157.809C180.338 157.632 180.97 157.452 181.618 157.273C185.021 156.335 189.197 155.697 191.603 155.811C193.283 155.891 194.483 156.113 194.445 156.91C194.407 157.708 191.025 157.56 190.068 157.673C187.158 158.018 186.556 158.359 183.24 159.274C182.65 159.436 180.4 160.387 179.802 160.558Z" fill="#594D32"/>
<path fill-rule="evenodd" clip-rule="evenodd" d="M139.492 135.875C140.257 135.645 141.615 136.291 141.845 137.055C143.127 141.321 143.396 144.117 143.269 147.746C143.166 150.692 142.951 154.472 141.76 159.239C141.142 162.103 140.661 164.346 140.502 165.449C139.838 169.277 139.865 168.796 139.242 171.66C138.606 175.006 137.928 177.229 137.633 179.541C137.348 181.763 137.109 183.594 137.165 185.067C137.221 186.547 137.85 187.785 138.249 188.495C138.639 189.191 139.391 190.143 138.839 190.452C137.743 191.067 136.894 189.459 136.504 188.763C135.789 187.491 135.347 185.719 135.282 184.013C135.218 182.301 135.212 181.713 135.503 179.441C135.798 177.139 136.245 174.419 136.754 171.325C137.233 168.415 137.767 165.175 138.278 161.641C138.442 160.509 138.774 159.124 138.918 158.139C139.639 153.235 139.933 150.364 140.029 147.592C140.142 144.36 139.742 141.727 138.524 137.675C138.295 136.91 138.728 136.104 139.492 135.875Z" fill="#594D32"/>
<path fill-rule="evenodd" clip-rule="evenodd" d="M155.372 156.989C155.83 157.493 154.482 158.079 153.859 158.365C152.398 159.034 150.651 160.006 148.178 160.611C147.659 160.738 145.668 161.309 145.519 161.346C142.813 162.009 142.282 162.099 140.337 162.926C139.709 163.193 139.029 162.8 138.819 162.048C138.608 161.296 138.947 160.47 139.575 160.203C141.712 159.295 141.509 160.004 144.166 159.353C145.142 159.114 146.85 158.985 148.28 158.466C150.904 157.824 151.698 157.456 152.965 156.875C153.588 156.59 155.056 156.579 155.372 156.989Z" fill="#594D32"/>
<path fill-rule="evenodd" clip-rule="evenodd" d="M188.227 144.83C186.909 144.788 185.494 144.943 184.169 145.119C180.152 145.655 174.652 148.055 172.375 149.217C171.664 149.58 170.794 149.297 170.431 148.586C170.068 147.875 170.351 147.005 171.062 146.642C173.398 145.45 179.261 142.857 183.787 142.254C185.131 142.075 186.747 141.891 188.319 141.94C189.871 141.99 191.555 142.27 192.932 143.162C194.39 144.108 195.332 145.631 195.528 147.764C195.433 149.77 194.673 152.098 193.07 155.398C192.782 156.143 192.325 156.58 191.58 156.292C190.836 156.004 191.406 154.631 191.694 153.886C192.895 150.781 192.848 149.082 192.718 147.668C192.596 146.334 192.006 146.008 191.358 145.588C190.629 145.114 189.565 144.872 188.227 144.83Z" fill="#594D32"/>
<path fill-rule="evenodd" clip-rule="evenodd" d="M93.5741 117.405C132.44 101.399 168.856 96.9868 196.694 113.099C210.779 121.25 215.812 133.203 215.802 144.253C215.793 155.173 210.852 165.295 204.888 169.896C201.883 172.215 195.443 176.448 189.116 177.747C188.066 177.962 180.766 179.857 179.739 180.091C175.986 180.944 173.224 180.649 171.628 178.879C170.103 177.186 170.209 174.715 170.545 172.776C171.074 169.726 172.12 163.226 172.578 160.351C172.703 159.563 173.444 159.026 174.233 159.151C175.021 159.277 175.558 160.018 175.433 160.806C174.975 163.677 173.926 170.197 173.393 173.27C173.066 175.158 173.239 176.348 173.776 176.944C174.243 177.462 175.537 178.082 179.098 177.272C180.176 177.027 181.243 176.807 182.309 176.587C188.577 175.296 194.826 174.009 203.123 167.607C208.247 163.653 212.903 154.453 212.912 144.251C212.92 134.179 208.391 123.209 195.246 115.601C168.626 100.194 135.644 104.513 94.4613 118.955C93.7081 119.219 90.5266 120.637 90.0676 120.133C89.6359 119.148 92.8209 117.669 93.5741 117.405Z" fill="#594D32"/>
<circle cx="91.6838" cy="111.028" r="3.68451" transform="rotate(2.7112 91.6838 111.028)" fill="#D2ECFF"/>
<circle cx="102.747" cy="122.09" r="4.2652" transform="rotate(2.7112 102.747 122.09)" fill="#D2ECFF"/>
<circle cx="83.574" cy="122.277" r="2.89077" transform="rotate(2.7112 83.574 122.277)" fill="#D2ECFF"/>
<defs>
<radialGradient id="paint0_radial_499_311" cx="0" cy="0" r="1" gradientUnits="userSpaceOnUse" gradientTransform="translate(134 150.5) rotate(88.9488) scale(109.018 109.02)">
<stop stop-color="white"/>
<stop offset="0.691" stop-color="white"/>
<stop offset="1" stop-color="#D2ECFF"/>
</radialGradient>
<radialGradient id="paint1_radial_499_311" cx="0" cy="0" r="1" gradientUnits="userSpaceOnUse" gradientTransform="translate(138.264 91.7836) rotate(90) scale(3.3458)">
<stop stop-color="#7E6E6E"/>
<stop offset="0.434" stop-color="#EFFF8F"/>
<stop offset="0.85" stop-color="#F9FFD3"/>
<stop offset="1" stop-color="#D2ECFF"/>
</radialGradient>
<radialGradient id="paint2_radial_499_311" cx="0" cy="0" r="1" gradientUnits="userSpaceOnUse" gradientTransform="translate(155.521 116.466) rotate(90) scale(3.51309)">
<stop stop-color="#7E6E6E"/>
<stop offset="0.434" stop-color="#EFFF8F"/>
<stop offset="0.85" stop-color="#F9FFD3"/>
<stop offset="1" stop-color="#D2ECFF"/>
</radialGradient>
<radialGradient id="paint3_radial_499_311" cx="0" cy="0" r="1" gradientUnits="userSpaceOnUse" gradientTransform="translate(170.574 92.6034) rotate(90) scale(3.51309)">
<stop stop-color="#7E6E6E"/>
<stop offset="0.434" stop-color="#EFFF8F"/>
<stop offset="0.85" stop-color="#F9FFD3"/>
<stop offset="1" stop-color="#D2ECFF"/>
</radialGradient>
<radialGradient id="paint4_radial_499_311" cx="0" cy="0" r="1" gradientUnits="userSpaceOnUse" gradientTransform="translate(127.359 120.944) rotate(90) scale(3.17851)">
<stop stop-color="#7E6E6E"/>
<stop offset="0.434" stop-color="#EFFF8F"/>
<stop offset="0.85" stop-color="#F9FFD3"/>
<stop offset="1" stop-color="#D2ECFF"/>
</radialGradient>
<radialGradient id="paint5_radial_499_311" cx="0" cy="0" r="1" gradientUnits="userSpaceOnUse" gradientTransform="translate(109.578 97.6091) rotate(90) scale(2.84393 2.84409)">
<stop stop-color="#7E6E6E"/>
<stop offset="0.434" stop-color="#EFFF8F"/>
<stop offset="0.85" stop-color="#F9FFD3"/>
<stop offset="1" stop-color="#D2ECFF"/>
</radialGradient>
</defs>
</svg>
