<svg width="41" height="40" viewBox="0 0 41 40" fill="none" xmlns="http://www.w3.org/2000/svg">
<rect width="28.7669" height="39.8814" rx="5" fill="#FFF6F2"/>
<path d="M3.26855 8.49931L25.4976 8.49932" stroke="#FBBB95" stroke-linecap="round"/>
<path d="M3.26855 24.1904L22.2286 24.1904" stroke="#FBBB95" stroke-linecap="round"/>
<path d="M3.26855 16.3448L25.4976 16.3448" stroke="#FBBB95" stroke-linecap="round"/>
<path d="M3.26855 32.0359L17.652 32.0359" stroke="#FBBB95" stroke-linecap="round"/>
<path d="M3.26855 12.4221L25.4976 12.4221" stroke="#FBBB95" stroke-linecap="round"/>
<path d="M3.26855 28.1131L19.6134 28.1131" stroke="#FBBB95" stroke-linecap="round"/>
<path d="M3.26855 20.2676L24.19 20.2676" stroke="#FBBB95" stroke-linecap="round"/>
<path d="M20 32.411L30.8324 13" stroke="#C7C151" stroke-width="2" stroke-linecap="round"/>
<path fill-rule="evenodd" clip-rule="evenodd" d="M36.2371 10.0204C36.2644 9.97873 36.2907 9.93605 36.3159 9.89237C37.0381 8.64155 36.6095 7.04214 35.3587 6.31998C34.1079 5.59781 32.5085 6.02638 31.7863 7.2772C31.7611 7.32087 31.7373 7.36496 31.7149 7.40943C31.5264 7.18825 31.2975 6.99495 31.0315 6.84135C29.7806 6.11919 28.1812 6.54775 27.4591 7.79857C26.8887 8.78647 27.0361 9.99181 27.7396 10.8107C27.2902 11.0314 26.8992 11.3834 26.63 11.8496C25.9078 13.1004 26.3364 14.6998 27.5872 15.422C28.375 15.8768 29.301 15.8752 30.0591 15.4992C30.1125 16.3437 30.5741 17.1465 31.3619 17.6013C32.6127 18.3234 34.2121 17.8949 34.9343 16.6441C35.2034 16.1779 35.3127 15.6633 35.2792 15.1637C36.3401 15.3636 37.4579 14.8886 38.0283 13.9006C38.7505 12.6498 38.3219 11.0504 37.0711 10.3282C36.8049 10.1746 36.523 10.073 36.2371 10.0204Z" fill="#FBBB95"/>
<circle cx="32.0361" cy="11.7683" r="1.30759" fill="#FFF6F2"/>
</svg>
