<svg width="37" height="40" viewBox="0 0 37 40" fill="none" xmlns="http://www.w3.org/2000/svg">
<path fill-rule="evenodd" clip-rule="evenodd" d="M0.00011664 7.71677C0.0232634 3.45095 3.48851 0 7.75977 0C12.031 0 15.4963 3.45095 15.5194 7.71677H15.5689V17.735H0V7.75977V7.71677H0.00011664Z" fill="#FBBB95"/>
<path fill-rule="evenodd" clip-rule="evenodd" d="M20.6173 7.80992C20.6172 7.79322 20.6172 7.7765 20.6172 7.75977C20.6172 3.47417 24.0914 0 28.377 0C32.6482 0 36.1135 3.45095 36.1366 7.71677H36.1863V17.735H20.6173V7.80992Z" fill="#C7C151"/>
<path fill-rule="evenodd" clip-rule="evenodd" d="M0.000116746 29.6117C0.023274 25.3459 3.48852 21.895 7.75977 21.895C12.031 21.895 15.4963 25.3459 15.5194 29.6117H15.5689V39.63H0V29.6547V29.6117H0.000116746Z" fill="#C7C151"/>
<path fill-rule="evenodd" clip-rule="evenodd" d="M20.6173 29.7049C20.6172 29.6882 20.6172 29.6715 20.6172 29.6547C20.6172 25.3691 24.0914 21.895 28.377 21.895C32.6482 21.895 36.1135 25.3459 36.1366 29.6117H36.1863V39.63H20.6173V29.7049Z" fill="#FBBB95"/>
</svg>
